<svg xmlns="http://www.w3.org/2000/svg" viewBox="0 0 46.35 40.91"><defs><style>.cls-1{fill:#e61e25;}.cls-2{fill:#fff;}</style></defs><title>alert</title><g id="Layer_2" data-name="Layer 2"><g id="Layer_1-2" data-name="Layer 1"><path class="cls-1" d="M20.67,1.79c1.38-2.38,3.63-2.38,5,0L45.76,36.58c1.38,2.38.25,4.33-2.5,4.33H3.09C.34,40.91-.79,39,.59,36.58Z"/><path class="cls-2" d="M23.17,31.77A2.93,2.93,0,0,1,26.1,34.7a2.85,2.85,0,0,1-.86,2.08,2.9,2.9,0,0,1-4.14,0,2.85,2.85,0,0,1-.86-2.08,2.93,2.93,0,0,1,2.93-2.93Zm.57-2H22.35a106.83,106.83,0,0,1-1.5-13.64v-8h4.41v8A108.41,108.41,0,0,1,23.74,29.8Z"/></g></g></svg>