<?xml version="1.0" encoding="UTF-8" standalone="no"?>
<svg width="29px" height="26px" viewBox="0 0 29 26" version="1.1" xmlns="http://www.w3.org/2000/svg" xmlns:xlink="http://www.w3.org/1999/xlink" xmlns:sketch="http://www.bohemiancoding.com/sketch/ns">
    <!-- Generator: Sketch 3.2.1 (9977) - http://www.bohemiancoding.com/sketch -->
    <title>Suport Center Icon</title>
    <desc>Created with Sketch.</desc>
    <defs></defs>
    <g id="Page-5---Final" stroke="none" stroke-width="1" fill="none" fill-rule="evenodd" sketch:type="MSPage">
        <g id="Home---Nav-Slide-out" sketch:type="MSArtboardGroup" transform="translate(-945.000000, -30.000000)" fill-opacity="0.850000024" fill="#5C666F">
            <g id="Header/Footer" sketch:type="MSLayerGroup">
                <g id="Header" sketch:type="MSShapeGroup">
                    <g id="Header---Menu-with-background">
                        <g id="Support-Center" transform="translate(945.000000, 31.000000)">
                            <g id="Suport-Center-Icon">
                                <path d="M27.056,18.9858133 C27.972,17.7282667 28.786,16.1839467 28.786,14.6446933 C28.786,11.98368 26.935,9.67834667 24.226,8.52112 C24.233,8.65893333 24.251,8.79472 24.251,8.93354667 C24.251,14.06912 19.88,18.3666667 14.083,19.36784 C15.634,20.71456 17.835,21.55968 20.282,21.55968 C23.778,21.55968 25.556,24.0686933 27.993,24.0686933 C27.269,23.2276267 25.98,20.4673067 27.056,18.9858133" id="Fill-1"></path>
                                <path d="M22.835,8.93354667 C22.835,3.84053333 17.757,-0.287786667 11.495,-0.287786667 C5.237,-0.287786667 0.157,3.84053333 0.157,8.93354667 C0.157,10.9855467 1.243,13.04464 2.462,14.7217067 C3.899,16.6966933 2.181,20.37712 1.212,21.49888 C4.462,21.49888 6.833,18.1538667 11.495,18.1538667 C17.757,18.1538667 22.835,14.02656 22.835,8.93354667 L22.835,8.93354667 Z M11.495,16.1434133 C8.675,16.1434133 6.565,17.1648533 4.856,18.06976 C5.14,16.48896 5.011,14.83824 4.06,13.5300267 C2.804,11.8033067 2.142,10.2144 2.142,8.93354667 C2.142,4.95824 6.337,1.72266667 11.495,1.72266667 C16.653,1.72266667 20.851,4.95824 20.851,8.93354667 C20.851,12.9088533 16.653,16.1434133 11.495,16.1434133 L11.495,16.1434133 Z" id="Fill-2"></path>
                                <path d="M7.097,7.99722667 C6.352,7.99722667 5.749,8.60725333 5.749,9.36117333 C5.749,10.1161067 6.352,10.7271467 7.097,10.7271467 C7.841,10.7271467 8.444,10.1161067 8.444,9.36117333 C8.444,8.60725333 7.841,7.99722667 7.097,7.99722667" id="Fill-3"></path>
                                <path d="M11.485,7.99722667 C10.741,7.99722667 10.138,8.60725333 10.138,9.36117333 C10.138,10.1161067 10.741,10.7271467 11.485,10.7271467 C12.229,10.7271467 12.831,10.1161067 12.831,9.36117333 C12.831,8.60725333 12.229,7.99722667 11.485,7.99722667" id="Fill-4"></path>
                                <path d="M15.874,7.99722667 C15.13,7.99722667 14.526,8.60725333 14.526,9.36117333 C14.526,10.1161067 15.13,10.7271467 15.874,10.7271467 C16.616,10.7271467 17.22,10.1161067 17.22,9.36117333 C17.22,8.60725333 16.616,7.99722667 15.874,7.99722667" id="Fill-5"></path>
                            </g>
                        </g>
                    </g>
                </g>
            </g>
        </g>
    </g>
</svg>