<svg width="44" height="30" viewBox="0 0 44 30" xmlns="http://www.w3.org/2000/svg"><title>Imported Layers</title><path d="M42.44 24.55c-.522-.33-2.486-1.443-2.943-1.703V2.152C39.497.97 38.547 0 37.382 0H6.027C4.863 0 3.912.97 3.912 2.152v20.695c-.457.26-2.42 1.374-2.942 1.702-.646.4-.97.552-.97 1.09v1.184c0 1.358 1.09 2.467 2.423 2.467h38.563c1.333 0 2.423-1.11 2.423-2.466V25.64c0-.537-.324-.688-.97-1.09zM24.316 27.5H19.09c-.824 0-1.492-.678-1.492-1.516h8.21c0 .838-.668 1.517-1.493 1.517zm11.788-5.14c0 .235-.19.43-.423.43H7.728c-.234 0-.422-.195-.422-.43V3.88c0-.232.188-.43.422-.43h27.955c.232 0 .423.198.423.43v18.48z" fill="#FFF" fill-rule="evenodd"/></svg>