<svg width="43" height="35" viewBox="0 0 43 35" xmlns="http://www.w3.org/2000/svg"><title>Imported Layers</title><g fill="#FFF" fill-rule="evenodd"><path d="M40.49 24.426c-.787-.36-5.123-2.497-5.123-2.497 4.844-1.142 5.927-4.262 5.927-4.262s-3.726-.536-2.85-5.98c.073-.432.073-.82.042-1.187.072-2.922-2.405-5.63-6.687-5.63-4.286 0-6.765 2.71-6.69 5.635-.028.365-.028.752.042 1.184.876 5.442-2.85 5.978-2.85 5.978s.42 1.276 1.98 2.482c1.02.424 2.17.872 3.314 1.318 1.413.55 3 2.422 3.267 4.18l1.033 6.174c6.85-.01 11.126-1.05 11.126-2.336 0-.082-.678-2.74-.678-2.74-.135-.932-1.067-1.962-1.854-2.32zM29.253 25.885c-.168-1.123-1.413-2.57-2.368-3-.957-.433-6.755-2.398-7.263-3.53-.506-1.132.015-3.566.015-3.566.576-.876 1.053-1.9 1.43-2.996.026.003.05.016.08.016.866 0 1.61-1.216 1.796-2.255.2-1.107.17-2.13-.695-2.13-.056 0-.117.01-.176.02C23.542 4.677 20.802.46 15.254.46c-5.55 0-8.288 4.218-6.817 7.984-.06-.008-.124-.02-.177-.02-.865 0-.896 1.024-.695 2.13.188 1.04.93 2.256 1.798 2.256.028 0 .053-.013.078-.016.38 1.097.856 2.12 1.432 2.995 0 0 .52 2.433.014 3.564-.507 1.133-6.305 3.1-7.263 3.53-.954.43-2.203 1.878-2.367 3l-.858 5.72c0 1.68 5.86 3.044 14.858 3.044 9 0 14.86-1.363 14.86-3.043 0-.016-.012-.03-.012-.046l-.85-5.675"/></g></svg>